<svg width="58" height="56" viewBox="0 0 58 56" fill="none" xmlns="http://www.w3.org/2000/svg">
<path d="M28 0.5H30C45.1878 0.5 57.5 12.8122 57.5 28C57.5 43.1878 45.1878 55.5 30 55.5H28C12.8122 55.5 0.5 43.1878 0.5 28C0.5 12.8122 12.8122 0.5 28 0.5Z" stroke="#40494D"/>
<path fill-rule="evenodd" clip-rule="evenodd" d="M22 27.6667C22 24.537 24.537 22 27.6667 22C30.7963 22 33.3333 24.537 33.3333 27.6667C33.3333 29.1891 32.7329 30.5713 31.756 31.5895C31.7255 31.6136 31.6961 31.6397 31.6679 31.6679C31.6397 31.6961 31.6136 31.7255 31.5895 31.756C30.5713 32.7329 29.1891 33.3333 27.6667 33.3333C24.537 33.3333 22 30.7963 22 27.6667ZM32.3347 33.7489C31.0419 34.7426 29.4233 35.3333 27.6667 35.3333C23.4325 35.3333 20 31.9008 20 27.6667C20 23.4325 23.4325 20 27.6667 20C31.9008 20 35.3333 23.4325 35.3333 27.6667C35.3333 29.4233 34.7426 31.0419 33.7489 32.3347L36.7071 35.2929C37.0976 35.6834 37.0976 36.3166 36.7071 36.7071C36.3166 37.0976 35.6834 37.0976 35.2929 36.7071L32.3347 33.7489Z" fill="#40494D"/>
</svg>
